<svg xmlns="http://www.w3.org/2000/svg" viewBox="0 0 330 200"><g><g><g><g><g><line x1="50" x2="45" y1="178" y2="178" fill="#000" stroke="#CCC" stroke-width="1" style="visibility:inherit"/><line x1="50" x2="45" y1="160.2" y2="160.2" fill="#000" stroke="#CCC" stroke-width="1" style="visibility:inherit"/><line x1="50" x2="45" y1="142.4" y2="142.4" fill="#000" stroke="#CCC" stroke-width="1" style="visibility:inherit"/><line x1="50" x2="45" y1="124.6" y2="124.6" fill="#000" stroke="#CCC" stroke-width="1" style="visibility:inherit"/><line x1="50" x2="45" y1="106.8" y2="106.8" fill="#000" stroke="#CCC" stroke-width="1" style="visibility:inherit"/><line x1="50" x2="45" y1="89" y2="89" fill="#000" stroke="#CCC" stroke-width="1" style="visibility:inherit"/><line x1="50" x2="45" y1="71.2" y2="71.2" fill="#000" stroke="#CCC" stroke-width="1" style="visibility:inherit"/><line x1="50" x2="45" y1="53.4" y2="53.4" fill="#000" stroke="#CCC" stroke-width="1" style="visibility:inherit"/><line x1="50" x2="45" y1="35.6" y2="35.6" fill="#000" stroke="#CCC" stroke-width="1" style="visibility:inherit"/><line x1="50" x2="45" y1="17.8" y2="17.8" fill="#000" stroke="#CCC" stroke-width="1" style="visibility:inherit"/><line x1="50" x2="45" y1="0" y2="0" fill="#000" stroke="#CCC" stroke-width="1" style="visibility:inherit"/></g><g><text x="0" y="178" fill="#32313F" stroke="none" stroke-width="1" dx="0em" dy=".3em" transform="translate(40, 0)" style="text-anchor:end;visibility:hidden;font-family:&quot;Helvetica Neue&quot;,sans-serif;font-size:12px;font-weight:200">0.89</text><text x="0" y="160.2" fill="#32313F" stroke="none" stroke-width="1" dx="0em" dy=".3em" transform="translate(40, 0)" style="text-anchor:end;visibility:inherit;font-family:&quot;Helvetica Neue&quot;,sans-serif;font-size:12px;font-weight:200">0.9</text><text x="0" y="142.4" fill="#32313F" stroke="none" stroke-width="1" dx="0em" dy=".3em" transform="translate(40, 0)" style="text-anchor:end;visibility:hidden;font-family:&quot;Helvetica Neue&quot;,sans-serif;font-size:12px;font-weight:200">0.91</text><text x="0" y="124.6" fill="#32313F" stroke="none" stroke-width="1" dx="0em" dy=".3em" transform="translate(40, 0)" style="text-anchor:end;visibility:inherit;font-family:&quot;Helvetica Neue&quot;,sans-serif;font-size:12px;font-weight:200">0.92</text><text x="0" y="106.8" fill="#32313F" stroke="none" stroke-width="1" dx="0em" dy=".3em" transform="translate(40, 0)" style="text-anchor:end;visibility:hidden;font-family:&quot;Helvetica Neue&quot;,sans-serif;font-size:12px;font-weight:200">0.93</text><text x="0" y="89" fill="#32313F" stroke="none" stroke-width="1" dx="0em" dy=".3em" transform="translate(40, 0)" style="text-anchor:end;visibility:inherit;font-family:&quot;Helvetica Neue&quot;,sans-serif;font-size:12px;font-weight:200">0.94</text><text x="0" y="71.2" fill="#32313F" stroke="none" stroke-width="1" dx="0em" dy=".3em" transform="translate(40, 0)" style="text-anchor:end;visibility:hidden;font-family:&quot;Helvetica Neue&quot;,sans-serif;font-size:12px;font-weight:200">0.95</text><text x="0" y="53.4" fill="#32313F" stroke="none" stroke-width="1" dx="0em" dy=".3em" transform="translate(40, 0)" style="text-anchor:end;visibility:inherit;font-family:&quot;Helvetica Neue&quot;,sans-serif;font-size:12px;font-weight:200">0.96</text><text x="0" y="35.6" fill="#32313F" stroke="none" stroke-width="1" dx="0em" dy=".3em" transform="translate(40, 0)" style="text-anchor:end;visibility:hidden;font-family:&quot;Helvetica Neue&quot;,sans-serif;font-size:12px;font-weight:200">0.97</text><text x="0" y="17.8" fill="#32313F" stroke="none" stroke-width="1" dx="0em" dy=".3em" transform="translate(40, 0)" style="text-anchor:end;visibility:inherit;font-family:&quot;Helvetica Neue&quot;,sans-serif;font-size:12px;font-weight:200">0.98</text><text x="0" y="0" fill="#32313F" stroke="none" stroke-width="1" dx="0em" dy=".3em" transform="translate(40, 0)" style="text-anchor:end;visibility:hidden;font-family:&quot;Helvetica Neue&quot;,sans-serif;font-size:12px;font-weight:200">0.99</text></g><line x1="50" x2="50" y1="0" y2="178" fill="#000" stroke="#CCC" stroke-width="1"/></g></g><g clip-path="url(#clip_0)" transform="translate(50, 0)"><clipPath id="clip_0"><rect width="280" height="178"/></clipPath><g><g><g><line x1="0" x2="0" y1="0" y2="178" fill="#000" stroke="#3C3C3C" stroke-width="1" opacity=".25"/><line x1="25.455" x2="25.455" y1="0" y2="178" fill="#000" stroke="#3C3C3C" stroke-width="1" opacity=".25"/><line x1="50.909" x2="50.909" y1="0" y2="178" fill="#000" stroke="#3C3C3C" stroke-width="1" opacity=".25"/><line x1="76.364" x2="76.364" y1="0" y2="178" fill="#000" stroke="#3C3C3C" stroke-width="1" opacity=".25"/><line x1="101.818" x2="101.818" y1="0" y2="178" fill="#000" stroke="#3C3C3C" stroke-width="1" opacity=".25"/><line x1="127.273" x2="127.273" y1="0" y2="178" fill="#000" stroke="#3C3C3C" stroke-width="1" opacity=".25"/><line x1="152.727" x2="152.727" y1="0" y2="178" fill="#000" stroke="#3C3C3C" stroke-width="1" opacity=".25"/><line x1="178.182" x2="178.182" y1="0" y2="178" fill="#000" stroke="#3C3C3C" stroke-width="1" opacity=".25"/><line x1="203.636" x2="203.636" y1="0" y2="178" fill="#000" stroke="#3C3C3C" stroke-width="1" opacity=".25"/><line x1="229.091" x2="229.091" y1="0" y2="178" fill="#000" stroke="#3C3C3C" stroke-width="1" opacity=".25"/><line x1="254.545" x2="254.545" y1="0" y2="178" fill="#000" stroke="#3C3C3C" stroke-width="1" opacity=".25"/><line x1="280" x2="280" y1="0" y2="178" fill="#000" stroke="#3C3C3C" stroke-width="1" opacity=".25"/></g><g><line x1="0" x2="280" y1="178" y2="178" fill="#000" stroke="#3C3C3C" stroke-width="1" opacity=".25"/><line x1="0" x2="280" y1="160.2" y2="160.2" fill="#000" stroke="#3C3C3C" stroke-width="1" opacity=".25"/><line x1="0" x2="280" y1="142.4" y2="142.4" fill="#000" stroke="#3C3C3C" stroke-width="1" opacity=".25"/><line x1="0" x2="280" y1="124.6" y2="124.6" fill="#000" stroke="#3C3C3C" stroke-width="1" opacity=".25"/><line x1="0" x2="280" y1="106.8" y2="106.8" fill="#000" stroke="#3C3C3C" stroke-width="1" opacity=".25"/><line x1="0" x2="280" y1="89" y2="89" fill="#000" stroke="#3C3C3C" stroke-width="1" opacity=".25"/><line x1="0" x2="280" y1="71.2" y2="71.2" fill="#000" stroke="#3C3C3C" stroke-width="1" opacity=".25"/><line x1="0" x2="280" y1="53.4" y2="53.4" fill="#000" stroke="#3C3C3C" stroke-width="1" opacity=".25"/><line x1="0" x2="280" y1="35.6" y2="35.6" fill="#000" stroke="#3C3C3C" stroke-width="1" opacity=".25"/><line x1="0" x2="280" y1="17.8" y2="17.8" fill="#000" stroke="#3C3C3C" stroke-width="1" opacity=".25"/><line x1="0" x2="280" y1="0" y2="0" fill="#000" stroke="#3C3C3C" stroke-width="1" opacity=".25"/></g></g></g><g><g><line x1="0" x2="280" y1="1762.2" y2="1762.2" fill="#000" stroke="#999" stroke-width="1.5"/></g></g><g><g><line x1="25.455" x2="25.455" y1="0" y2="178" fill="#000" stroke="#999" stroke-width="1.5"/></g></g><g><g><g><g><g><path style="fill:none" fill="none" stroke="#FF7043" stroke-width="2" d="M25.454545454545457,217.3837027072907L37.485226262626256,141.15839066616664L49.464305050505054,104.77892313215759L61.59910909090909,82.12647569815074L73.90522222222222,65.64483505544882L86.22874343434344,55.21444475798256L98.66481616161616,46.810677170487565L111.04528484848484,40.17552579622003L123.44375555555557,35.21668102007726L135.8776505050505,31.90135289918905L148.25885454545457,29.769972842688645L160.62112323232324,28.17738669532102L172.9912404040404,29.04066676947636L185.38080202020203,29.128487768428414L197.7891292929293,32.25332898681475L210.1812080808081,39.13045123838353L222.57284848484852,42.8858166169172L234.97881414141415,45.79375522675599L247.38619393939396,51.77010394110965L259.80628686868687,52.04598761944723"/></g></g></g></g><g opacity=".2"><g><g><g><path style="fill:none" fill="none" stroke="#FF7043" stroke-width="2" d="M25.454545454545457,217.3837027072907L37.485226262626256,86.6572925567627L49.464305050505054,60.16951055526734L61.59910909090909,46.069422674179094L73.90522222222222,35.10267586708068L86.22874343434344,33.93678398132323L98.66481616161616,28.544441175460804L111.04528484848484,25.1196536540985L123.44375555555557,23.62581820487975L135.8776505050505,23.99015278816222L148.25885454545457,24.60954279899596L160.62112323232324,24.281705331802357L172.9912404040404,31.167777490615833L185.38080202020203,29.34599847793578L197.7891292929293,40.02129883766173L210.1812080808081,56.27100319862366L222.57284848484852,52.26321668624878L234.97881414141415,53.06477398872376L247.38619393939396,66.72763915061951L259.80628686868687,52.736936521530154"/></g></g></g></g></g></g><g clip-path="url(#clip_1)" transform="translate(50, 178)"><clipPath id="clip_1"><rect width="280" height="22"/></clipPath><g><g><line x1="0" x2="0" y1="0" y2="5" fill="#000" stroke="#CCC" stroke-width="1" style="visibility:inherit"/><line x1="25.455" x2="25.455" y1="0" y2="5" fill="#000" stroke="#CCC" stroke-width="1" style="visibility:inherit"/><line x1="50.909" x2="50.909" y1="0" y2="5" fill="#000" stroke="#CCC" stroke-width="1" style="visibility:inherit"/><line x1="76.364" x2="76.364" y1="0" y2="5" fill="#000" stroke="#CCC" stroke-width="1" style="visibility:inherit"/><line x1="101.818" x2="101.818" y1="0" y2="5" fill="#000" stroke="#CCC" stroke-width="1" style="visibility:inherit"/><line x1="127.273" x2="127.273" y1="0" y2="5" fill="#000" stroke="#CCC" stroke-width="1" style="visibility:inherit"/><line x1="152.727" x2="152.727" y1="0" y2="5" fill="#000" stroke="#CCC" stroke-width="1" style="visibility:inherit"/><line x1="178.182" x2="178.182" y1="0" y2="5" fill="#000" stroke="#CCC" stroke-width="1" style="visibility:inherit"/><line x1="203.636" x2="203.636" y1="0" y2="5" fill="#000" stroke="#CCC" stroke-width="1" style="visibility:inherit"/><line x1="229.091" x2="229.091" y1="0" y2="5" fill="#000" stroke="#CCC" stroke-width="1" style="visibility:inherit"/><line x1="254.545" x2="254.545" y1="0" y2="5" fill="#000" stroke="#CCC" stroke-width="1" style="visibility:inherit"/><line x1="280" x2="280" y1="0" y2="5" fill="#000" stroke="#CCC" stroke-width="1" style="visibility:inherit"/></g><g><text x="0" y="0" fill="#32313F" stroke="none" stroke-width="1" dx="0em" dy=".95em" transform="translate(0, 8)" style="text-anchor:middle;visibility:hidden;font-family:&quot;Helvetica Neue&quot;,sans-serif;font-size:12px;font-weight:200">-0.5</text><text x="25.455" y="0" fill="#32313F" stroke="none" stroke-width="1" dx="0em" dy=".95em" transform="translate(0, 8)" style="text-anchor:middle;visibility:inherit;font-family:&quot;Helvetica Neue&quot;,sans-serif;font-size:12px;font-weight:200">0</text><text x="50.909" y="0" fill="#32313F" stroke="none" stroke-width="1" dx="0em" dy=".95em" transform="translate(0, 8)" style="text-anchor:middle;visibility:inherit;font-family:&quot;Helvetica Neue&quot;,sans-serif;font-size:12px;font-weight:200">0.5</text><text x="76.364" y="0" fill="#32313F" stroke="none" stroke-width="1" dx="0em" dy=".95em" transform="translate(0, 8)" style="text-anchor:middle;visibility:inherit;font-family:&quot;Helvetica Neue&quot;,sans-serif;font-size:12px;font-weight:200">1</text><text x="101.818" y="0" fill="#32313F" stroke="none" stroke-width="1" dx="0em" dy=".95em" transform="translate(0, 8)" style="text-anchor:middle;visibility:inherit;font-family:&quot;Helvetica Neue&quot;,sans-serif;font-size:12px;font-weight:200">1.5</text><text x="127.273" y="0" fill="#32313F" stroke="none" stroke-width="1" dx="0em" dy=".95em" transform="translate(0, 8)" style="text-anchor:middle;visibility:inherit;font-family:&quot;Helvetica Neue&quot;,sans-serif;font-size:12px;font-weight:200">2</text><text x="152.727" y="0" fill="#32313F" stroke="none" stroke-width="1" dx="0em" dy=".95em" transform="translate(0, 8)" style="text-anchor:middle;visibility:inherit;font-family:&quot;Helvetica Neue&quot;,sans-serif;font-size:12px;font-weight:200">2.5</text><text x="178.182" y="0" fill="#32313F" stroke="none" stroke-width="1" dx="0em" dy=".95em" transform="translate(0, 8)" style="text-anchor:middle;visibility:inherit;font-family:&quot;Helvetica Neue&quot;,sans-serif;font-size:12px;font-weight:200">3</text><text x="203.636" y="0" fill="#32313F" stroke="none" stroke-width="1" dx="0em" dy=".95em" transform="translate(0, 8)" style="text-anchor:middle;visibility:inherit;font-family:&quot;Helvetica Neue&quot;,sans-serif;font-size:12px;font-weight:200">3.5</text><text x="229.091" y="0" fill="#32313F" stroke="none" stroke-width="1" dx="0em" dy=".95em" transform="translate(0, 8)" style="text-anchor:middle;visibility:inherit;font-family:&quot;Helvetica Neue&quot;,sans-serif;font-size:12px;font-weight:200">4</text><text x="254.545" y="0" fill="#32313F" stroke="none" stroke-width="1" dx="0em" dy=".95em" transform="translate(0, 8)" style="text-anchor:middle;visibility:inherit;font-family:&quot;Helvetica Neue&quot;,sans-serif;font-size:12px;font-weight:200">4.5</text><text x="280" y="0" fill="#32313F" stroke="none" stroke-width="1" dx="0em" dy=".95em" transform="translate(0, 8)" style="text-anchor:middle;visibility:hidden;font-family:&quot;Helvetica Neue&quot;,sans-serif;font-size:12px;font-weight:200">5</text></g><line x1="0" x2="280" y1="0" y2="0" fill="#000" stroke="#CCC" stroke-width="1"/></g></g></g></g></svg>