<svg xmlns="http://www.w3.org/2000/svg" viewBox="0 0 330 200"><g><g><g><g><g><line x1="50" x2="45" y1="178" y2="178" fill="#000" stroke="#CCC" stroke-width="1" style="visibility:inherit"/><line x1="50" x2="45" y1="158.222" y2="158.222" fill="#000" stroke="#CCC" stroke-width="1" style="visibility:inherit"/><line x1="50" x2="45" y1="138.444" y2="138.444" fill="#000" stroke="#CCC" stroke-width="1" style="visibility:inherit"/><line x1="50" x2="45" y1="118.667" y2="118.667" fill="#000" stroke="#CCC" stroke-width="1" style="visibility:inherit"/><line x1="50" x2="45" y1="98.889" y2="98.889" fill="#000" stroke="#CCC" stroke-width="1" style="visibility:inherit"/><line x1="50" x2="45" y1="79.111" y2="79.111" fill="#000" stroke="#CCC" stroke-width="1" style="visibility:inherit"/><line x1="50" x2="45" y1="59.333" y2="59.333" fill="#000" stroke="#CCC" stroke-width="1" style="visibility:inherit"/><line x1="50" x2="45" y1="39.556" y2="39.556" fill="#000" stroke="#CCC" stroke-width="1" style="visibility:inherit"/><line x1="50" x2="45" y1="19.778" y2="19.778" fill="#000" stroke="#CCC" stroke-width="1" style="visibility:inherit"/><line x1="50" x2="45" y1="0" y2="0" fill="#000" stroke="#CCC" stroke-width="1" style="visibility:inherit"/></g><g><text x="0" y="178" fill="#32313F" stroke="none" stroke-width="1" dx="0em" dy=".3em" transform="translate(40, 0)" style="text-anchor:end;visibility:hidden;font-family:&quot;Helvetica Neue&quot;,sans-serif;font-size:12px;font-weight:200">-0.1</text><text x="0" y="158.222" fill="#32313F" stroke="none" stroke-width="1" dx="0em" dy=".3em" transform="translate(40, 0)" style="text-anchor:end;visibility:inherit;font-family:&quot;Helvetica Neue&quot;,sans-serif;font-size:12px;font-weight:200">0</text><text x="0" y="138.444" fill="#32313F" stroke="none" stroke-width="1" dx="0em" dy=".3em" transform="translate(40, 0)" style="text-anchor:end;visibility:hidden;font-family:&quot;Helvetica Neue&quot;,sans-serif;font-size:12px;font-weight:200">0.1</text><text x="0" y="118.667" fill="#32313F" stroke="none" stroke-width="1" dx="0em" dy=".3em" transform="translate(40, 0)" style="text-anchor:end;visibility:inherit;font-family:&quot;Helvetica Neue&quot;,sans-serif;font-size:12px;font-weight:200">0.2</text><text x="0" y="98.889" fill="#32313F" stroke="none" stroke-width="1" dx="0em" dy=".3em" transform="translate(40, 0)" style="text-anchor:end;visibility:hidden;font-family:&quot;Helvetica Neue&quot;,sans-serif;font-size:12px;font-weight:200">0.3</text><text x="0" y="79.111" fill="#32313F" stroke="none" stroke-width="1" dx="0em" dy=".3em" transform="translate(40, 0)" style="text-anchor:end;visibility:inherit;font-family:&quot;Helvetica Neue&quot;,sans-serif;font-size:12px;font-weight:200">0.4</text><text x="0" y="59.333" fill="#32313F" stroke="none" stroke-width="1" dx="0em" dy=".3em" transform="translate(40, 0)" style="text-anchor:end;visibility:hidden;font-family:&quot;Helvetica Neue&quot;,sans-serif;font-size:12px;font-weight:200">0.5</text><text x="0" y="39.556" fill="#32313F" stroke="none" stroke-width="1" dx="0em" dy=".3em" transform="translate(40, 0)" style="text-anchor:end;visibility:inherit;font-family:&quot;Helvetica Neue&quot;,sans-serif;font-size:12px;font-weight:200">0.6</text><text x="0" y="19.778" fill="#32313F" stroke="none" stroke-width="1" dx="0em" dy=".3em" transform="translate(40, 0)" style="text-anchor:end;visibility:hidden;font-family:&quot;Helvetica Neue&quot;,sans-serif;font-size:12px;font-weight:200">0.7</text><text x="0" y="0" fill="#32313F" stroke="none" stroke-width="1" dx="0em" dy=".3em" transform="translate(40, 0)" style="text-anchor:end;visibility:hidden;font-family:&quot;Helvetica Neue&quot;,sans-serif;font-size:12px;font-weight:200">0.8</text></g><line x1="50" x2="50" y1="0" y2="178" fill="#000" stroke="#CCC" stroke-width="1"/></g></g><g clip-path="url(#clip_0)" transform="translate(50, 0)"><clipPath id="clip_0"><rect width="280" height="178"/></clipPath><g><g><g><line x1="0" x2="0" y1="0" y2="178" fill="#000" stroke="#3C3C3C" stroke-width="1" opacity=".25"/><line x1="25.455" x2="25.455" y1="0" y2="178" fill="#000" stroke="#3C3C3C" stroke-width="1" opacity=".25"/><line x1="50.909" x2="50.909" y1="0" y2="178" fill="#000" stroke="#3C3C3C" stroke-width="1" opacity=".25"/><line x1="76.364" x2="76.364" y1="0" y2="178" fill="#000" stroke="#3C3C3C" stroke-width="1" opacity=".25"/><line x1="101.818" x2="101.818" y1="0" y2="178" fill="#000" stroke="#3C3C3C" stroke-width="1" opacity=".25"/><line x1="127.273" x2="127.273" y1="0" y2="178" fill="#000" stroke="#3C3C3C" stroke-width="1" opacity=".25"/><line x1="152.727" x2="152.727" y1="0" y2="178" fill="#000" stroke="#3C3C3C" stroke-width="1" opacity=".25"/><line x1="178.182" x2="178.182" y1="0" y2="178" fill="#000" stroke="#3C3C3C" stroke-width="1" opacity=".25"/><line x1="203.636" x2="203.636" y1="0" y2="178" fill="#000" stroke="#3C3C3C" stroke-width="1" opacity=".25"/><line x1="229.091" x2="229.091" y1="0" y2="178" fill="#000" stroke="#3C3C3C" stroke-width="1" opacity=".25"/><line x1="254.545" x2="254.545" y1="0" y2="178" fill="#000" stroke="#3C3C3C" stroke-width="1" opacity=".25"/><line x1="280" x2="280" y1="0" y2="178" fill="#000" stroke="#3C3C3C" stroke-width="1" opacity=".25"/></g><g><line x1="0" x2="280" y1="178" y2="178" fill="#000" stroke="#3C3C3C" stroke-width="1" opacity=".25"/><line x1="0" x2="280" y1="158.222" y2="158.222" fill="#000" stroke="#3C3C3C" stroke-width="1" opacity=".25"/><line x1="0" x2="280" y1="138.444" y2="138.444" fill="#000" stroke="#3C3C3C" stroke-width="1" opacity=".25"/><line x1="0" x2="280" y1="118.667" y2="118.667" fill="#000" stroke="#3C3C3C" stroke-width="1" opacity=".25"/><line x1="0" x2="280" y1="98.889" y2="98.889" fill="#000" stroke="#3C3C3C" stroke-width="1" opacity=".25"/><line x1="0" x2="280" y1="79.111" y2="79.111" fill="#000" stroke="#3C3C3C" stroke-width="1" opacity=".25"/><line x1="0" x2="280" y1="59.333" y2="59.333" fill="#000" stroke="#3C3C3C" stroke-width="1" opacity=".25"/><line x1="0" x2="280" y1="39.556" y2="39.556" fill="#000" stroke="#3C3C3C" stroke-width="1" opacity=".25"/><line x1="0" x2="280" y1="19.778" y2="19.778" fill="#000" stroke="#3C3C3C" stroke-width="1" opacity=".25"/><line x1="0" x2="280" y1="0" y2="0" fill="#000" stroke="#3C3C3C" stroke-width="1" opacity=".25"/></g></g></g><g><g><line x1="0" x2="280" y1="158.222" y2="158.222" fill="#000" stroke="#999" stroke-width="1.5"/></g></g><g><g><line x1="25.455" x2="25.455" y1="0" y2="178" fill="#000" stroke="#999" stroke-width="1.5"/></g></g><g><g><g><g><g><path style="fill:none" fill="none" stroke="#FF7043" stroke-width="2" d="M25.454545454545457,68.30463332600065L37.485226262626256,95.95028249299138L49.46431919191919,108.23895487567627L61.59912323232324,114.99458114354351L73.90523636363636,119.14535136277078L86.22875757575757,119.87833091230425L98.66483030303031,121.20198506296623L111.04529898989898,121.87560221533371L123.4437696969697,121.48563140333489L135.87766464646467,118.75236838989822L148.2588686868687,116.08504551947385L160.62113737373738,111.87330330888079L172.99125454545452,104.59933729157768L185.38081616161617,99.78345212510611L197.78914343434343,90.06027060664859L210.18122222222223,74.30981975332493L222.57286262626266,64.9498209817761L234.9788282828283,57.754409678231866L247.38620808080807,44.84190111261029L259.80630101010104,43.08653774913586"/></g></g></g></g><g opacity=".2"><g><g><g><path style="fill:none" fill="none" stroke="#FF7043" stroke-width="2" d="M25.454545454545457,68.30463332600065L37.485226262626256,115.71692164738974L49.46431919191919,123.30763216813406L61.59912323232324,125.74785516659419L73.90523636363636,126.8371514413092L86.22875757575757,121.37358562151591L98.66483030303031,124.07904928922653L111.04529898989898,123.40411198801465L123.4437696969697,120.57410898473529L135.87766464646467,112.23012085755667L148.2588686868687,109.62700766987271L160.62113737373738,101.57081156306798L172.99125454545452,86.67638092570836L185.38081616161617,87.85570577780408L197.78914343434343,65.88964060942334L210.18122222222223,35.05336750878229L222.57286262626266,41.577274163564056L234.9788282828283,39.76298083199396L247.38620808080807,12.524626678890655L259.80630101010104,38.69024146927728"/></g></g></g></g></g></g><g clip-path="url(#clip_1)" transform="translate(50, 178)"><clipPath id="clip_1"><rect width="280" height="22"/></clipPath><g><g><line x1="0" x2="0" y1="0" y2="5" fill="#000" stroke="#CCC" stroke-width="1" style="visibility:inherit"/><line x1="25.455" x2="25.455" y1="0" y2="5" fill="#000" stroke="#CCC" stroke-width="1" style="visibility:inherit"/><line x1="50.909" x2="50.909" y1="0" y2="5" fill="#000" stroke="#CCC" stroke-width="1" style="visibility:inherit"/><line x1="76.364" x2="76.364" y1="0" y2="5" fill="#000" stroke="#CCC" stroke-width="1" style="visibility:inherit"/><line x1="101.818" x2="101.818" y1="0" y2="5" fill="#000" stroke="#CCC" stroke-width="1" style="visibility:inherit"/><line x1="127.273" x2="127.273" y1="0" y2="5" fill="#000" stroke="#CCC" stroke-width="1" style="visibility:inherit"/><line x1="152.727" x2="152.727" y1="0" y2="5" fill="#000" stroke="#CCC" stroke-width="1" style="visibility:inherit"/><line x1="178.182" x2="178.182" y1="0" y2="5" fill="#000" stroke="#CCC" stroke-width="1" style="visibility:inherit"/><line x1="203.636" x2="203.636" y1="0" y2="5" fill="#000" stroke="#CCC" stroke-width="1" style="visibility:inherit"/><line x1="229.091" x2="229.091" y1="0" y2="5" fill="#000" stroke="#CCC" stroke-width="1" style="visibility:inherit"/><line x1="254.545" x2="254.545" y1="0" y2="5" fill="#000" stroke="#CCC" stroke-width="1" style="visibility:inherit"/><line x1="280" x2="280" y1="0" y2="5" fill="#000" stroke="#CCC" stroke-width="1" style="visibility:inherit"/></g><g><text x="0" y="0" fill="#32313F" stroke="none" stroke-width="1" dx="0em" dy=".95em" transform="translate(0, 8)" style="text-anchor:middle;visibility:hidden;font-family:&quot;Helvetica Neue&quot;,sans-serif;font-size:12px;font-weight:200">-0.5</text><text x="25.455" y="0" fill="#32313F" stroke="none" stroke-width="1" dx="0em" dy=".95em" transform="translate(0, 8)" style="text-anchor:middle;visibility:inherit;font-family:&quot;Helvetica Neue&quot;,sans-serif;font-size:12px;font-weight:200">0</text><text x="50.909" y="0" fill="#32313F" stroke="none" stroke-width="1" dx="0em" dy=".95em" transform="translate(0, 8)" style="text-anchor:middle;visibility:inherit;font-family:&quot;Helvetica Neue&quot;,sans-serif;font-size:12px;font-weight:200">0.5</text><text x="76.364" y="0" fill="#32313F" stroke="none" stroke-width="1" dx="0em" dy=".95em" transform="translate(0, 8)" style="text-anchor:middle;visibility:inherit;font-family:&quot;Helvetica Neue&quot;,sans-serif;font-size:12px;font-weight:200">1</text><text x="101.818" y="0" fill="#32313F" stroke="none" stroke-width="1" dx="0em" dy=".95em" transform="translate(0, 8)" style="text-anchor:middle;visibility:inherit;font-family:&quot;Helvetica Neue&quot;,sans-serif;font-size:12px;font-weight:200">1.5</text><text x="127.273" y="0" fill="#32313F" stroke="none" stroke-width="1" dx="0em" dy=".95em" transform="translate(0, 8)" style="text-anchor:middle;visibility:inherit;font-family:&quot;Helvetica Neue&quot;,sans-serif;font-size:12px;font-weight:200">2</text><text x="152.727" y="0" fill="#32313F" stroke="none" stroke-width="1" dx="0em" dy=".95em" transform="translate(0, 8)" style="text-anchor:middle;visibility:inherit;font-family:&quot;Helvetica Neue&quot;,sans-serif;font-size:12px;font-weight:200">2.5</text><text x="178.182" y="0" fill="#32313F" stroke="none" stroke-width="1" dx="0em" dy=".95em" transform="translate(0, 8)" style="text-anchor:middle;visibility:inherit;font-family:&quot;Helvetica Neue&quot;,sans-serif;font-size:12px;font-weight:200">3</text><text x="203.636" y="0" fill="#32313F" stroke="none" stroke-width="1" dx="0em" dy=".95em" transform="translate(0, 8)" style="text-anchor:middle;visibility:inherit;font-family:&quot;Helvetica Neue&quot;,sans-serif;font-size:12px;font-weight:200">3.5</text><text x="229.091" y="0" fill="#32313F" stroke="none" stroke-width="1" dx="0em" dy=".95em" transform="translate(0, 8)" style="text-anchor:middle;visibility:inherit;font-family:&quot;Helvetica Neue&quot;,sans-serif;font-size:12px;font-weight:200">4</text><text x="254.545" y="0" fill="#32313F" stroke="none" stroke-width="1" dx="0em" dy=".95em" transform="translate(0, 8)" style="text-anchor:middle;visibility:inherit;font-family:&quot;Helvetica Neue&quot;,sans-serif;font-size:12px;font-weight:200">4.5</text><text x="280" y="0" fill="#32313F" stroke="none" stroke-width="1" dx="0em" dy=".95em" transform="translate(0, 8)" style="text-anchor:middle;visibility:hidden;font-family:&quot;Helvetica Neue&quot;,sans-serif;font-size:12px;font-weight:200">5</text></g><line x1="0" x2="280" y1="0" y2="0" fill="#000" stroke="#CCC" stroke-width="1"/></g></g></g></g></svg>